# xmcd CD database file
#
# Track frame offsets:
#	150
#	20072
#	41477
#	59017
#	72755
#	90320
#	110990
#	135662
#	154430
#	173630
#	190077
#	221830
#	237025
#	253572
#	268730
#	289915
#	300737
#	312725
#
# Disc length: 4547 seconds
#
# Revision: 1
# Processed by: cddbd v1.5.2PL0 Copyright (c) Steve Scherf et al.
# Submitted via: CDex 1.51
#
DISCID=1311c112
DTITLE=Various Artist - Tower Records Original Jazz Classics, TR-5
DYEAR=1996
DGENRE=Jazz
TTITLE0=Miles Davis - Airegin
TTITLE1=John Coltrane - Goldsboro Express
TTITLE2=Red Garland - I Ai'nt Got Nobody
TTITLE3=Wardell Gray - Grayhound
TTITLE4=Eric Dolphy - Far Cry
TTITLE5=James Moody - Moody's Blue Again
TTITLE6=Abbey Lincoln - Let Up
TTITLE7=Lighthouse All-Stars - Mood For Lighthouse
TTITLE8=Coleman Hawkins - Red Beans
TTITLE9=Art Pepper - Red Pepper Blues
TTITLE10=Art Blakey and The Jazz Messengers - Kyoto
TTITLE11=Stan Getz - Intoit
TTITLE12=The Montgomery Brothers - Delirium
TTITLE13=Jerry Mulligan - Ide's Side
TTITLE14=Shelly Manne and His Men - Pullin' Strings
TTITLE15=Sonny Rollins - Mambo Bounce
TTITLE16=Annie Ross - Twisted
TTITLE17=Ben Webster - Renaissance Blues
EXTD=YEAR: 1996
EXTT0=
EXTT1=
EXTT2=
EXTT3=
EXTT4=
EXTT5=
EXTT6=
EXTT7=
EXTT8=
EXTT9=
EXTT10=
EXTT11=
EXTT12=
EXTT13=
EXTT14=
EXTT15=
EXTT16=
EXTT17=
PLAYORDER=
